<svg version="1.2" xmlns="http://www.w3.org/2000/svg" viewBox="0 0 800 800" width="800" height="800">
	<title>package</title>
	<style>
		tspan { white-space:pre } 
		.s0 { fill: currentColor } 
		.s1 { fill: #7a4a23 } 
		.t2 { font-size: 100px;fill: #ffffff;font-family: "Arial" } 
	</style>
	<path class="s0" d="m283.6 139.9h195.7l10.7 3.9 9.8 8.7 4.9 7.8 1.9 7.8v58.4h44.8v-28.2l2.9-5.8 4.9-3.9 3.9-2h46.7l5.9 2.9 4.8 5.9 2 5.8v25.3h24.3l9.8 3 7.7 6.8 3.9 5.8 2 6.8v58.5l7.8 0.9 7.8 6.9 2.9 4.8 1 3.9v16.6l-3.9 8.7-7.8 6.9-4.9 1.9h-2.9v261.9l-2.9 14.6-6.8 13.7-8.8 10.7-12.7 8.8-12.6 4.8-4.9 1h-446l-11.7-3.9-10.7-5.8-8.7-7.8-8.8-12.7-4.9-12.6-0.9-4.9v-267.8l-5.9-1-5.8-3.9-4.9-5.8-2.9-6.8v-17.5l3.9-7.8 7.8-6.9 6.8-1.9 1-59.4 3.9-8.8 3.8-4.8 7.8-4.9 7.8-2h103.2v-60.3l3.9-10.7 8.8-9.8 10.7-4.8zm3.9 26.3l-4.9 3.8v56.5h197.7l-1-56.5-4.8-3.8z"/>
	<path class="s1" d="m283.6 139.9h195.7l10.7 3.9 9.8 8.7 4.9 7.8 1.9 7.8v58.4h44.8v-28.2l2.9-5.8 4.9-3.9 3.9-2h46.7l5.9 2.9 4.8 5.9 2 5.8v25.3h24.3l9.8 3 7.7 6.8 3.9 5.8 2 6.8v58.5l7.8 0.9 7.8 6.9 2.9 4.8 1 3.9v16.6l-3.9 8.7-7.8 6.9-4.9 1.9h-2.9v261.9l-2.9 14.6-6.8 13.7-8.8 10.7-12.7 8.8-12.6 4.8-4.9 1h-446l-11.7-3.9-10.7-5.8-8.7-7.8-8.8-12.7-4.9-12.6-0.9-4.9v-267.8l-5.9-1-5.8-3.9-4.9-5.8-2.9-6.8v-17.5l3.9-7.8 7.8-6.9 6.8-1.9 1-59.4 3.9-8.8 3.8-4.8 7.8-4.9 7.8-2h103.2v-60.3l3.9-10.7 8.8-9.8 10.7-4.8zm3.9 26.3l-4.9 3.8v56.5h197.7l-1-56.5-4.8-3.8zm-139.3 191.8v261.9l3.9 12.7 5.9 8.7 8.7 7.8 7.8 3.9 7.8 2h435.3l9.7-2.9 10.7-6.9 6.8-8.7 3.9-7.8 2-6.8v-263.9z"/>
	<path class="s0" d="m159 244.9h484.9l5.9 3.9 1.9 4.9v51.6h-502.4v-52.6l5.8-6.8z"/>
	<path class="s0" d="m133.7 325.9h533.6l2.9 2.9v7.8l-2.9 2.9h-535.6l-1.9-1.9v-8.8z"/>
	<path class="s0" d="m604.1 204.9v19.5h-32.1v-19.5z"/>
	<!-- <text id="
    Pack 1
  " style="transform: matrix(.974,0,0,.974,359.77,381.527)" >
		<tspan x="-196.6" y="120" class="t2">    Pack 1
</tspan>
		<tspan x="-22.4" y="240" class="t2">  
</tspan>
	</text> -->
</svg>