<svg version="1.1" xmlns="http://www.w3.org/2000/svg" width="801" height="744">
<path d="M0,0 L10,0 L20,3 L29,9 L36,17 L41,29 L56,76 L56,79 L88,69 L91,69 L85,47 L85,36 L89,29 L93,26 L136,12 L146,12 L152,15 L157,21 L164,42 L164,44 L182,38 L196,38 L204,41 L213,49 L217,57 L232,100 L233,109 L230,117 L225,122 L218,126 L175,140 L139,152 L92,168 L26,190 L-15,204 L-90,229 L-131,243 L-173,257 L-211,270 L-218,272 L278,273 L285,279 L286,287 L283,293 L280,296 L277,297 L255,297 L255,570 L251,582 L244,593 L234,602 L220,609 L210,611 L-239,611 L-251,608 L-264,601 L-274,591 L-281,579 L-284,568 L-284,297 L-304,297 L-310,293 L-312,290 L-312,280 L-308,275 L-305,273 L-317,235 L-318,230 L-318,223 L-315,213 L-311,207 L-304,201 L-289,195 L-253,183 L-217,171 L-205,167 L-202,167 L-211,143 L-222,112 L-224,103 L-223,91 L-219,81 L-213,74 L-203,68 L-162,54 L-85,28 L-31,10 L-5,1 Z M2,28 L-34,40 L-106,64 L-147,78 L-190,92 L-195,95 L-196,97 L-196,104 L-188,128 L-177,158 L-168,156 L-97,132 L-11,103 L30,89 L31,87 L19,51 L13,32 L8,28 Z " fill="currentColor" transform="translate(412,70)"/>
<path d="M0,0 L10,0 L20,3 L29,9 L36,17 L41,29 L56,76 L56,79 L88,69 L91,69 L85,47 L85,36 L89,29 L93,26 L136,12 L146,12 L152,15 L157,21 L164,42 L164,44 L182,38 L196,38 L204,41 L213,49 L217,57 L232,100 L233,109 L230,117 L225,122 L218,126 L175,140 L139,152 L92,168 L26,190 L-15,204 L-90,229 L-131,243 L-173,257 L-211,270 L-218,272 L278,273 L285,279 L286,287 L283,293 L280,296 L277,297 L255,297 L255,570 L251,582 L244,593 L234,602 L220,609 L210,611 L-239,611 L-251,608 L-264,601 L-274,591 L-281,579 L-284,568 L-284,297 L-304,297 L-310,293 L-312,290 L-312,280 L-308,275 L-305,273 L-317,235 L-318,230 L-318,223 L-315,213 L-311,207 L-304,201 L-289,195 L-253,183 L-217,171 L-205,167 L-202,167 L-211,143 L-222,112 L-224,103 L-223,91 L-219,81 L-213,74 L-203,68 L-162,54 L-85,28 L-31,10 L-5,1 Z M2,28 L-34,40 L-106,64 L-147,78 L-190,92 L-195,95 L-196,97 L-196,104 L-188,128 L-177,158 L-168,156 L-97,132 L-11,103 L30,89 L31,87 L19,51 L13,32 L8,28 Z M-265,297 L-265,564 L-261,576 L-252,586 L-244,590 L-241,591 L214,591 L225,585 L231,578 L235,569 L236,565 L236,297 Z " fill="#7a4a23" transform="translate(412,70)"/>
<path d="M0,0 L7,1 L12,6 L18,22 L26,46 L26,49 L-15,63 L-99,91 L-140,105 L-209,128 L-250,142 L-307,161 L-348,175 L-429,202 L-467,215 L-469,213 L-479,181 L-482,171 L-481,164 L-477,160 L-461,154 L-407,136 L-371,124 L-324,108 L-228,76 L-187,62 L-151,50 L-100,33 L-57,19 L-21,7 Z " fill="currentColor" transform="translate(597,128)"/>
<path d="M0,0 L4,1 L9,15 L9,18 L-24,29 L-26,28 L-30,14 L-30,10 Z " fill="currentColor" transform="translate(548,103)"/>
</svg>
