<svg version="1.1" xmlns="http://www.w3.org/2000/svg" width="860" height="800">
  <!-- 主轮廓填充 -->
  <path d="M301,112 L502,112 L513,116 L523,125 L528,133 L530,141 L530,201 L576,201 L576,172 L579,166 L584,162 L588,160 L636,160 L642,163 L647,169 L649,175 L649,201 L674,201 L684,204 L692,211 L696,217 L698,224 L698,284 L706,285 L714,292 L717,297 L718,301 L718,318 L714,327 L706,334 L701,336 L698,336 L698,605 L695,620 L688,634 L679,645 L666,654 L653,659 L648,660 L190,660 L178,656 L167,650 L158,642 L149,629 L144,616 L143,611 L143,336 L137,335 L131,331 L126,325 L123,318 L123,300 L127,292 L135,285 L142,283 L143,222 L147,213 L151,208 L159,203 L167,201 L273,201 L273,139 L277,128 L286,118 L297,113 Z
           M305,139 L300,143 L300,201 L503,201 L502,143 L497,139 Z" fill="currentColor" />

  <!-- 主轮廓线框 + 内部挖空 -->
  <path d="M301,112 L502,112 L513,116 L523,125 L528,133 L530,141 L530,201 L576,201 L576,172 L579,166 L584,162 L588,160 L636,160 L642,163 L647,169 L649,175 L649,201 L674,201 L684,204 L692,211 L696,217 L698,224 L698,284 L706,285 L714,292 L717,297 L718,301 L718,318 L714,327 L706,334 L701,336 L698,336 L698,605 L695,620 L688,634 L679,645 L666,654 L653,659 L648,660 L190,660 L178,656 L167,650 L158,642 L149,629 L144,616 L143,611 L143,336 L137,335 L131,331 L126,325 L123,318 L123,300 L127,292 L135,285 L142,283 L143,222 L147,213 L151,208 L159,203 L167,201 L273,201 L273,139 L277,128 L286,118 L297,113 Z
           M305,139 L300,143 L300,201 L503,201 L502,143 L497,139 Z
           M162,336 L162,605 L166,618 L172,627 L181,635 L189,639 L197,641 L644,641 L654,638 L665,631 L672,622 L676,614 L678,607 L678,336 Z" fill="#7a4a23" />

  <!-- 装饰条1 -->
  <path d="M172,221 L670,221 L676,225 L678,230 L678,283 L162,283 L162,229 L168,222 Z" fill="currentColor" />

  <!-- 装饰条2 -->
  <path d="M147,302 L695,302 L698,305 L698,313 L695,316 L145,316 L143,314 L143,305 Z" fill="currentColor" />

  <!-- 小矩形块 -->
  <path d="M595,181 L628,181 L628,201 L595,201 Z" fill="currentColor" />
</svg>
