<svg viewBox="0 0 1046 850" xmlns="http://www.w3.org/2000/svg" width="16" height="16">
  <!-- 外框（整体压扁） -->
  <path d="M1047 780c0 38-36 70-81 70H82c-45 0-81-32-81-70V70C1 32 37 0 82 0h884c45 0 81 32 81 70v710z" fill="#C2BAA7"/>

  <!-- 底座（明显变矮） -->
  <path d="M985 790s-273 8-473 8-450-8-450-8V500s245-18 459-18c215 0 464 18 464 18v290z" fill="#CFCFCF"/>

  <!-- 机身 -->
  <path d="M985 500s-273 10-473 10-450-10-450-10V110s245-20 459-20c215 0 464 20 464 20v390z" fill="#1E1A17"/>

  <!-- 显示屏（适度上移） -->
  <rect x="124" y="160" width="799" height="250" fill="#98EAE8"/>
</svg>
