<svg t="1760338900283" class="icon" viewBox="0 0 1024 1024" version="1.1" xmlns="http://www.w3.org/2000/svg" p-id="5891" xmlns:xlink="http://www.w3.org/1999/xlink" width="16" height="16">
   <path d="M978.38 1024H45.62A45.68 45.68 0 0 1 0 978.38V45.62A45.68 45.68 0 0 1 45.62 0h932.76A45.68 45.68 0 0 1 1024 45.62v932.76a45.68 45.68 0 0 1-45.62 45.62zM45.62 10.14a35.52 35.52 0 0 0-35.48 35.48v932.76a35.52 35.52 0 0 0 35.48 35.48h932.76a35.52 35.52 0 0 0 35.48-35.48V45.62a35.52 35.52 0 0 0-35.48-35.48z" p-id="5892"></path>
   <path d="M796.49 831.37h-569a34.92 34.92 0 0 1-34.88-34.87v-569a34.92 34.92 0 0 1 34.88-34.88h569a34.92 34.92 0 0 1 34.88 34.88v569a34.92 34.92 0 0 1-34.88 34.87z m-569-618.46a14.62 14.62 0 0 0-14.6 14.6v569a14.62 14.62 0 0 0 14.6 14.59h569a14.62 14.62 0 0 0 14.6-14.59v-569a14.62 14.62 0 0 0-14.6-14.6z" p-id="5893"></path>
   <path d="M762.71 628.59H261.28a28.12 28.12 0 0 1-28.09-28.09V261.29a28.12 28.12 0 0 1 28.09-28.1h501.43a28.12 28.12 0 0 1 28.1 28.1V600.5a28.12 28.12 0 0 1-28.1 28.09zM261.28 253.47a7.82 7.82 0 0 0-7.81 7.82V600.5a7.82 7.82 0 0 0 7.81 7.82h501.43a7.83 7.83 0 0 0 7.82-7.82V261.29a7.82 7.82 0 0 0-7.82-7.82z" p-id="5894"></path>
   <path d="M511.85 577.89a73.89 73.89 0 0 1-8.39-0.49c-30.9-3.62-56.78-28.5-61.55-59.16a70.84 70.84 0 0 1 29.54-69.49V314.3a40.55 40.55 0 1 1 81.1 0v134.45a70.93 70.93 0 0 1-40.7 129.14zM512 294a20.31 20.31 0 0 0-20.28 20.28v145.87l-5.05 2.93A50.69 50.69 0 0 0 462 515.13c3.39 21.83 21.84 39.55 43.87 42.13a50.67 50.67 0 0 0 31.51-94.18l-5.05-2.93V314.3A20.31 20.31 0 0 0 512 294zM517.07 740.12a40.56 40.56 0 1 1 40.55-40.56 40.61 40.61 0 0 1-40.55 40.56z m0-60.83a20.28 20.28 0 1 0 20.28 20.27 20.3 20.3 0 0 0-20.28-20.27zM618.46 740.12A40.56 40.56 0 1 1 659 699.56a40.6 40.6 0 0 1-40.54 40.56z m0-60.83a20.28 20.28 0 1 0 20.27 20.27 20.3 20.3 0 0 0-20.27-20.27zM719.84 740.12a40.56 40.56 0 1 1 40.56-40.56 40.6 40.6 0 0 1-40.56 40.56z m0-60.83a20.28 20.28 0 1 0 20.28 20.27 20.3 20.3 0 0 0-20.28-20.27z" p-id="5895"></path>
</svg>