<svg xmlns="http://www.w3.org/2000/svg" xmlns:xlink="http://www.w3.org/1999/xlink" t="1759029005736" class="icon" viewBox="0 0 1024 1024" version="1.1" p-id="6120" width="64" height="64">
  <path d="M512 64.003072c-247.412736 0-448 200.576-448 448.002048 0 247.419904 200.587264 447.990784 448 447.990784 247.431168 0 448-200.571904 448-447.990784 0-247.426048-200.568832-448.002048-448-448.002048z m-22.288384 201.660416c-0.007168-12.377088 10.028032-22.403072 22.40512-22.403072 12.367872 0.004096 22.411264 10.034176 22.411264 22.403072v268.778496c0 12.370944-10.036224 22.395904-22.411264 22.395904-12.367872 0.009216-22.406144-10.02496-22.406144-22.4l0.001024-268.7744z m21.941248 515.257344c-37.111808 0-67.196928-30.08-67.196928-67.18976s30.08512-67.198976 67.196928-67.198976c37.107712 0 67.19488 30.089216 67.19488 67.198976s-30.088192 67.18976-67.19488 67.18976z" p-id="6121" fill="currentColor"/>
</svg>
